<svg height="121.40498" preserveAspectRatio="xMidYMid" viewBox="92.51436768 14.29750977 314.97126465 121.40498047" width="314.971265" xmlns="http://www.w3.org/2000/svg" xmlns:xlink="http://www.w3.org/1999/xlink"><linearGradient id="a" gradientUnits="objectBoundingBox" x1=".043227" x2=".956773" y1=".296632" y2=".703368"><stop offset="0" stop-color="#ffb200"/><stop offset=".5" stop-color="#e10057"/><stop offset="1" stop-color="#5a1a80"/></linearGradient><linearGradient id="b" x1="0" x2="0" y1="0" y2="1"><stop offset=".2" stop-color="#fff" stop-opacity=".8"/><stop offset=".8" stop-color="#fff" stop-opacity="0"/></linearGradient><filter id="c" height="300%" width="300%" x="-100%" y="-100%"><feMorphology operator="erode" radius="2"/></filter><filter id="d" height="300%" width="300%" x="-100%" y="-100%"><feFlood flood-color="#fff" result="flood"/><feConvolveMatrix divisor="1" in="SourceGraphic" kernelMatrix="0 0 0 0 0 0 0 0 0 0 0 1 1 0 0 0 0 0 0 1 1 0 0 0 0 0 1 0 0 1 0 0 0 0 1 0 0 1 0 0 0 1 0 0 0 0 1 0 0 1 1 0 0 1 1 0 0 0 0 1 1 0 0 0" order="8,8" result="conv"/><feOffset dx="0" dy="4" in="conv" result="offset"/><feComposite in="flood" in2="offset" operator="in" result="comp"/><feGaussianBlur in="offset" result="shadow" stdDeviation="3"/><feColorMatrix in="shadow" result="dark-shadow" type="matrix" values="0.7 0 0 0 0  0 0.7 0 0 0  0 0 0.7 0 0  0 0 0 0.3 0"/><feOffset dx="0" dy="4" in="dark-shadow" result="offset-shadow"/><feOffset dx="0" dy="2" in="conv" result="offset-2"/><feComposite in="offset" in2="offset-2" operator="out" result="edge-diff"/><feGaussianBlur in="edge-diff" result="edge-blur" stdDeviation="1"/><feColorMatrix in="edge-blur" result="edge-shadow" type="matrix" values="0 0 0 0 0  0 0 0 0 0  0 0 0 0 0  0 0 0 0.5 0"/><feComposite in="edge-shadow" in2="offset" operator="in" result="edge-shadow-in"/><feOffset dx="0" dy="1" in="edge-shadow-in" result="edge-shadow-final"/><feMerge result="out"><feMergeNode in="offset-shadow"/><feMergeNode in="comp"/><feMergeNode in="edge-shadow-final"/><feMergeNode in="SourceGraphic"/></feMerge></filter><g filter="url(#d)"><path d="m6.53 0h-7.36l11.58-42.24h13.38l2.94 24.13 11.91-24.13h11.2l1.15 31.62q.25 6.27 3.33 8.19-.71 1.28-2.76 2.49-2.04 1.22-4.76 1.22-2.72 0-4.32-.77-1.6-.77-2.5-2.05-1.6-2.3-1.6-6.72v-19.77l-12.61 28.03h-7.93l-4.48-28.74zm64.83 1.28q-14.08 0-14.08-13.25 0-9.41 5.18-15.49 5.51-6.46 15.04-6.46 6.92 0 10.44 3.2 3.52 3.2 3.52 9.92 0 10.24-5.51 16.19-5.37 5.89-14.59 5.89zm1.66-27.84q-.76 1.73-1.37 4.32-.61 2.59-1.38 6.69-.77 4.09-.77 9.15 0 1.66.55 2.75.54 1.09 2.01 1.09 1.48 0 2.4-.7.93-.71 1.64-2.37 1.28-2.95 2.3-8.42 1.02-5.47 1.12-7.84.1-2.37.1-4.13 0-1.76-.52-2.91-.51-1.15-1.95-1.15-1.44 0-2.4.9-.96.89-1.73 2.62zm45.44-4.99q2.12-2.37 5.76-2.37 2.24 0 3.97 1.22 1.73 1.21 1.73 3.48 0 2.28-.7 4.71-.71 2.43-1.8 4.93-2.17 4.86-5.18 8.89-4.22 5.83-8.29 8.9-4.06 3.07-8.48 3.07-3.58 0-5.76-.83-.38-13.44-.86-18.24-.48-4.8-.87-7.43-.64-5.12-2.56-6.33 1.48-1.28 2.92-1.83 1.44-.54 4.41-.54 2.98 0 5.09 2.34 2.11 2.33 2.53 6.46.41 4.13.41 9.12 0 4.99-.38 11.01 1.98-1.41 4.1-5.7 2.88-5.95 3.9-13.12.32-2.17.32-4.48 0-2.3-.26-3.26zm28.55 28.03q-1.99 4.8-8.32 4.8-3.27 0-5.31-2.24-1.73-1.98-1.73-3.97 0-5.18 2.37-15.29l2.36-12.42 13-1.28-3.91 20.22q-1.09 4.74-1.09 6.4 0 3.65 2.63 3.78zm-9.47-38.02q0-2.49 2.08-3.84 2.08-1.34 5.08-1.34 3.01 0 4.84 1.34 1.82 1.35 1.82 3.84 0 2.5-2.02 3.78-2.01 1.28-5.02 1.28-3.01 0-4.9-1.28-1.88-1.28-1.88-3.78zm40.83 30.72q1.6 1.09 1.6 3.49 0 2.4-1.22 3.94-1.21 1.53-3.2 2.56-4.09 2.11-8.51 2.11-4.42 0-7.01-.96-2.59-.96-4.32-2.75-3.39-3.39-3.39-9.6 0-9.67 5.25-15.55 5.63-6.34 15.42-6.34 6.08 0 9.09 2.56 2.24 1.92 2.24 5.06 0 11.26-19.46 11.26-.25 1.66-.25 3.07 0 2.95 1.31 4.07 1.31 1.12 3.74 1.12 2.44 0 5.03-1.12 2.59-1.12 3.68-2.92zm-13.06-6.97q4.55 0 7.17-2.82 2.62-2.69 2.62-6.97 0-1.48-.54-2.28-.54-.8-1.63-.8-1.09 0-2.02.42-.93.42-1.89 1.82-2.36 3.2-3.71 10.63zm40.32-4.67q.9-2.37.9-4.42 0-3.78-3.07-3.78-1.6 0-2.92 1.44-1.31 1.44-1.31 3.24 0 1.28 1.03 2.3 1.47 1.41 5.24 3.71 3.78 2.31 5.22 4.19 1.44 1.89 1.44 4.48 0 2.6-1.25 4.96-1.25 2.37-3.49 4.04-4.8 3.58-12.48 3.58-4.16 0-7.36-2.18-3.2-2.11-3.2-4.6 0-2.5 1.83-3.97 1.82-1.47 4.51-1.47 2.69 0 4.35 1.02-.83 2.11-.83 3.52 0 4.22 3.58 4.22 1.54 0 2.56-.96 1.03-.96 1.03-2.62 0-3.26-5.51-6.72-4.48-2.94-5.5-4.1-1.73-2.04-1.73-4.6 0-2.56 1.22-5 1.21-2.43 3.45-4.16 4.68-3.58 12.8-3.58 4.16 0 6.63 1.66 2.46 1.67 2.46 4.48 0 2.82-1.69 4.42-1.7 1.6-4.77 1.6-2.11 0-3.14-.7z" fill="url(#a)" transform="translate(142.385939 99)"/></g><g filter="url(#c)"><path d="m6.53 0h-7.36l11.58-42.24h13.38l2.94 24.13 11.91-24.13h11.2l1.15 31.62q.25 6.27 3.33 8.19-.71 1.28-2.76 2.49-2.04 1.22-4.76 1.22-2.72 0-4.32-.77-1.6-.77-2.5-2.05-1.6-2.3-1.6-6.72v-19.77l-12.61 28.03h-7.93l-4.48-28.74zm64.83 1.28q-14.08 0-14.08-13.25 0-9.41 5.18-15.49 5.51-6.46 15.04-6.46 6.92 0 10.44 3.2 3.52 3.2 3.52 9.92 0 10.24-5.51 16.19-5.37 5.89-14.59 5.89zm1.66-27.84q-.76 1.73-1.37 4.32-.61 2.59-1.38 6.69-.77 4.09-.77 9.15 0 1.66.55 2.75.54 1.09 2.01 1.09 1.48 0 2.4-.7.93-.71 1.64-2.37 1.28-2.95 2.3-8.42 1.02-5.47 1.12-7.84.1-2.37.1-4.13 0-1.76-.52-2.91-.51-1.15-1.95-1.15-1.44 0-2.4.9-.96.89-1.73 2.62zm45.44-4.99q2.12-2.37 5.76-2.37 2.24 0 3.97 1.22 1.73 1.21 1.73 3.48 0 2.28-.7 4.71-.71 2.43-1.8 4.93-2.17 4.86-5.18 8.89-4.22 5.83-8.29 8.9-4.06 3.07-8.48 3.07-3.58 0-5.76-.83-.38-13.44-.86-18.24-.48-4.8-.87-7.43-.64-5.12-2.56-6.33 1.48-1.28 2.92-1.83 1.44-.54 4.41-.54 2.98 0 5.09 2.34 2.11 2.33 2.53 6.46.41 4.13.41 9.12 0 4.99-.38 11.01 1.98-1.41 4.1-5.7 2.88-5.95 3.9-13.12.32-2.17.32-4.48 0-2.3-.26-3.26zm28.55 28.03q-1.99 4.8-8.32 4.8-3.27 0-5.31-2.24-1.73-1.98-1.73-3.97 0-5.18 2.37-15.29l2.36-12.42 13-1.28-3.91 20.22q-1.09 4.74-1.09 6.4 0 3.65 2.63 3.78zm-9.47-38.02q0-2.49 2.08-3.84 2.08-1.34 5.08-1.34 3.01 0 4.84 1.34 1.82 1.35 1.82 3.84 0 2.5-2.02 3.78-2.01 1.28-5.02 1.28-3.01 0-4.9-1.28-1.88-1.28-1.88-3.78zm40.83 30.72q1.6 1.09 1.6 3.49 0 2.4-1.22 3.94-1.21 1.53-3.2 2.56-4.09 2.11-8.51 2.11-4.42 0-7.01-.96-2.59-.96-4.32-2.75-3.39-3.39-3.39-9.6 0-9.67 5.25-15.55 5.63-6.34 15.42-6.34 6.08 0 9.09 2.56 2.24 1.92 2.24 5.06 0 11.26-19.46 11.26-.25 1.66-.25 3.07 0 2.95 1.31 4.07 1.31 1.12 3.74 1.12 2.44 0 5.03-1.12 2.59-1.12 3.68-2.92zm-13.06-6.97q4.55 0 7.17-2.82 2.62-2.69 2.62-6.97 0-1.48-.54-2.28-.54-.8-1.63-.8-1.09 0-2.02.42-.93.42-1.89 1.82-2.36 3.2-3.71 10.63zm40.32-4.67q.9-2.37.9-4.42 0-3.78-3.07-3.78-1.6 0-2.92 1.44-1.31 1.44-1.31 3.24 0 1.28 1.03 2.3 1.47 1.41 5.24 3.71 3.78 2.31 5.22 4.19 1.44 1.89 1.44 4.48 0 2.6-1.25 4.96-1.25 2.37-3.49 4.04-4.8 3.58-12.48 3.58-4.16 0-7.36-2.18-3.2-2.11-3.2-4.6 0-2.5 1.83-3.97 1.82-1.47 4.51-1.47 2.69 0 4.35 1.02-.83 2.11-.83 3.52 0 4.22 3.58 4.22 1.54 0 2.56-.96 1.03-.96 1.03-2.62 0-3.26-5.51-6.72-4.48-2.94-5.5-4.1-1.73-2.04-1.73-4.6 0-2.56 1.22-5 1.21-2.43 3.45-4.16 4.68-3.58 12.8-3.58 4.16 0 6.63 1.66 2.46 1.67 2.46 4.48 0 2.82-1.69 4.42-1.7 1.6-4.77 1.6-2.11 0-3.14-.7z" fill="url(#b)" transform="translate(142.378126 99)"/></g></svg>