<svg viewBox="0 0 185.04 133.4" xmlns="http://www.w3.org/2000/svg" xmlns:xlink="http://www.w3.org/1999/xlink"><linearGradient id="a" gradientUnits="userSpaceOnUse" x2="185.04" y1="66.7" y2="66.7"><stop offset="0" stop-color="#90cea1"/><stop offset=".56" stop-color="#3cbec9"/><stop offset="1" stop-color="#00b3e5"/></linearGradient><path d="m51.06 66.7a17.67 17.67 0 0 1 17.67-17.7h-.1a17.67 17.67 0 0 1 17.67 17.7 17.67 17.67 0 0 1 -17.67 17.67h.1a17.67 17.67 0 0 1 -17.67-17.67zm82.67-31.33h32.9a17.67 17.67 0 0 0 17.67-17.67 17.67 17.67 0 0 0 -17.67-17.7h-32.9a17.67 17.67 0 0 0 -17.67 17.7 17.67 17.67 0 0 0 17.67 17.67zm-113 98h63.9a17.67 17.67 0 0 0 17.67-17.67 17.67 17.67 0 0 0 -17.67-17.7h-63.9a17.67 17.67 0 0 0 -17.67 17.7 17.67 17.67 0 0 0 17.67 17.67zm83.92-49h6.25l14.6-35.37h-8.35l-8.9 23.2h-.1l-8.75-23.2h-8.9zm32.45 0h7.8v-35.37h-7.8zm22.2 0h24.95v-7.17h-17.15v-7.2h15.35v-7.2h-15.35v-6.6h16.25v-7.2h-24zm-149.2-48.97h7.8v-28.5h10.1v-6.9h-28v6.9h10.1zm28.9 0h7.8v-15.3h15.1v15.3h7.8v-35.4h-7.8v13.2h-15.15v-13.2h-7.75zm41.25 0h25v-7.2h-17.25v-7.2h15.35v-7.2h-15.35v-6.6h16.25v-7.2h-24zm-79 49h7.75v-27.15h.1l9 27.15h5.9l9.3-27.15h.1v27.15h7.8v-35.4h-11.75l-8.2 23.1h-.1l-8.15-23.1h-11.8zm112.09 49h12.66a24.59 24.59 0 0 0 7.56-1.15 19.52 19.52 0 0 0 6.35-3.37 16.37 16.37 0 0 0 4.37-5.5 16.91 16.91 0 0 0 1.72-7.58 18.5 18.5 0 0 0 -1.68-8.25 15.1 15.1 0 0 0 -4.52-5.53 18.55 18.55 0 0 0 -6.73-3.02 33.54 33.54 0 0 0 -8.07-1h-11.71zm7.81-28.2h4.6a17.43 17.43 0 0 1 4.67.62 11.68 11.68 0 0 1 3.88 1.88 9 9 0 0 1 2.62 3.18 9.87 9.87 0 0 1 1 4.52 11.92 11.92 0 0 1 -1 5.08 8.69 8.69 0 0 1 -2.67 3.34 10.87 10.87 0 0 1 -4 1.83 21.57 21.57 0 0 1 -5 .55h-4.15zm36.14 28.2h14.5a23.11 23.11 0 0 0 4.73-.5 13.38 13.38 0 0 0 4.27-1.65 9.42 9.42 0 0 0 3.1-3 8.52 8.52 0 0 0 1.2-4.68 9.16 9.16 0 0 0 -.55-3.2 7.79 7.79 0 0 0 -1.57-2.62 8.38 8.38 0 0 0 -2.45-1.85 10 10 0 0 0 -3.18-1v-.1a9.28 9.28 0 0 0 4.43-2.82 7.42 7.42 0 0 0 1.67-5 8.34 8.34 0 0 0 -1.15-4.65 7.88 7.88 0 0 0 -3-2.73 12.9 12.9 0 0 0 -4.17-1.3 34.42 34.42 0 0 0 -4.63-.32h-13.2zm7.8-28.8h5.3a10.79 10.79 0 0 1 1.85.17 5.77 5.77 0 0 1 1.7.58 3.33 3.33 0 0 1 1.23 1.13 3.22 3.22 0 0 1 .47 1.82 3.63 3.63 0 0 1 -.42 1.8 3.34 3.34 0 0 1 -1.13 1.2 4.78 4.78 0 0 1 -1.57.65 8.16 8.16 0 0 1 -1.78.2h-5.74zm0 14.15h5.9a15.12 15.12 0 0 1 2.05.15 7.83 7.83 0 0 1 2 .55 4 4 0 0 1 1.58 1.17 3.13 3.13 0 0 1 .62 2 3.71 3.71 0 0 1 -.47 1.95 4 4 0 0 1 -1.23 1.3 4.78 4.78 0 0 1 -1.67.7 8.91 8.91 0 0 1 -1.83.2h-7z" fill="url(#a)"/></svg>